# xmcd
#
# Track frame offsets: 
#        150
#        9768
#        26989
#        44266
#        57494
#        71798
#        81057
#        93157
#        105614
#        116197
#        131877
#        146155
#
# Disc length: 2073 seconds
#
# Revision: 1
# Processed by: cddbd v1.5.2PL0 Copyright (c) Steve Scherf et al.
# Submitted via: ExactAudioCopy v1.1
#
DISCID=aa08170c
DTITLE=Mario Lanza - My Song of Love
DYEAR=2006
DGENRE=Crossover
TTITLE0=Because Youre Mine
TTITLE1=My Song Of Love
TTITLE2=Granada
TTITLE3=Diane
TTITLE4=The Loveliest Night Of The Year
TTITLE5=Funiculi Funicula
TTITLE6=Thine Alone
TTITLE7=Vesta La Guibba
TTITLE8=A Vuchella
TTITLE9=Serenade
TTITLE10=O Paradiso
TTITLE11=A Marechiare
EXTD=YEAR: 2006
EXTT0=
EXTT1=
EXTT2=
EXTT3=
EXTT4=
EXTT5=
EXTT6=
EXTT7=
EXTT8=
EXTT9=
EXTT10=
EXTT11=
PLAYORDER=
